<?xml version="1.0" encoding="UTF-8" ?>
<!DOCTYPE svg PUBLIC "-//W3C//DTD SVG 1.1//EN" "http://www.w3.org/Graphics/SVG/1.1/DTD/svg11.dtd">
<svg width="512pt" height="512pt" viewBox="0 0 512 512" version="1.1" xmlns="http://www.w3.org/2000/svg">
<g id="#000001ff">
<path fill="#000001" opacity="1.00" d=" M 196.63 51.66 C 197.96 49.29 199.47 47.02 201.02 44.79 C 220.34 44.45 239.67 44.76 259.00 44.66 C 266.58 44.81 274.17 44.23 281.73 44.98 C 283.80 48.72 285.95 52.43 288.18 56.08 C 295.93 56.81 303.71 55.97 311.47 56.48 C 369.83 157.76 428.36 258.94 486.77 360.19 C 495.27 374.54 503.22 389.23 512.00 403.41 L 512.00 407.62 C 497.55 431.40 483.87 455.66 469.55 479.53 C 427.37 479.85 385.18 479.57 343.00 479.66 C 326.58 479.83 310.15 479.32 293.74 479.91 C 298.31 490.52 305.67 499.65 310.30 510.23 C 307.91 510.26 305.54 510.25 303.16 510.22 C 296.79 500.26 291.66 489.55 284.99 479.79 C 212.12 479.41 139.23 479.90 66.36 479.55 C 62.11 473.27 59.08 466.29 54.86 460.00 C 50.31 459.83 45.76 459.77 41.21 459.74 C 38.00 455.16 35.49 450.16 32.66 445.35 C 22.87 428.46 13.18 411.50 3.30 394.66 C 2.62 393.08 1.14 391.41 1.80 389.59 C 3.10 386.18 5.28 383.20 7.08 380.04 C 21.54 354.86 36.20 329.78 50.56 304.54 C 51.95 301.98 54.28 300.15 56.79 298.79 C 70.04 291.45 82.99 283.59 96.23 276.23 C 101.15 273.75 103.19 268.37 105.86 263.90 C 130.05 221.82 154.42 179.83 178.63 137.76 C 173.97 128.25 167.70 119.62 163.16 110.05 C 174.06 90.45 185.65 71.23 196.63 51.66 M 268.31 116.36 C 264.66 118.09 266.00 122.83 265.80 126.05 C 266.01 128.27 265.52 132.57 268.96 132.06 C 272.47 130.77 275.90 128.99 278.78 126.58 C 280.31 124.39 277.72 122.19 276.39 120.60 C 274.23 118.56 271.53 115.72 268.31 116.36 M 267.94 146.17 C 270.56 149.80 274.18 152.56 277.88 155.00 C 277.93 149.64 272.73 146.58 267.94 146.17 M 258.44 151.65 C 253.57 153.50 248.54 156.82 247.01 162.09 C 245.17 163.20 245.19 165.97 244.73 167.90 C 244.49 169.20 244.26 170.51 244.03 171.82 C 241.08 170.80 237.25 169.17 234.93 172.23 C 239.26 172.70 244.15 174.30 245.21 179.13 C 241.57 178.42 237.83 178.49 234.16 178.91 C 232.08 179.30 229.99 179.60 227.96 180.18 C 232.56 174.51 229.59 166.98 226.72 161.23 L 225.91 161.11 C 223.64 156.09 217.93 152.89 212.49 154.65 C 207.65 156.63 205.52 162.13 205.13 167.01 C 205.30 175.71 204.48 185.99 211.34 192.57 C 210.10 193.65 208.46 194.75 208.20 196.49 C 205.01 198.73 204.09 203.17 205.06 206.77 C 206.54 208.48 208.51 209.66 210.25 211.09 C 209.74 217.67 210.11 224.41 208.06 230.77 C 202.74 240.32 194.95 248.48 191.50 259.05 C 190.11 263.52 190.57 268.25 189.87 272.81 C 188.42 275.97 186.20 278.73 184.98 282.01 C 184.08 282.82 183.50 283.91 182.90 284.94 C 174.79 299.87 169.12 316.27 167.48 333.23 C 167.07 338.23 167.17 343.25 166.85 348.25 C 164.26 345.21 162.10 341.73 161.15 337.82 C 158.82 328.59 158.61 318.70 161.39 309.55 C 163.56 302.23 167.64 295.71 170.81 288.81 C 173.02 283.96 176.12 279.62 178.97 275.14 C 175.14 278.21 171.52 281.65 168.92 285.86 C 165.59 291.23 163.56 297.24 161.18 303.06 C 159.93 306.19 158.52 309.29 157.79 312.60 C 156.71 317.63 157.94 322.83 157.05 327.89 C 156.24 330.51 154.63 332.79 153.24 335.14 C 155.77 338.20 158.53 341.12 160.46 344.63 C 162.71 348.62 166.12 352.65 171.08 352.82 C 179.62 360.33 188.21 367.82 197.24 374.75 C 202.46 378.80 208.20 382.96 210.69 389.36 C 212.34 393.51 211.84 399.24 207.69 401.74 C 204.00 404.39 199.28 403.64 195.09 403.04 C 187.65 392.51 181.95 380.90 174.73 370.24 C 173.88 369.03 172.78 368.03 171.70 367.05 C 170.35 363.18 167.45 360.16 165.17 356.84 C 162.08 352.48 158.28 348.31 153.08 346.55 C 149.73 345.87 146.00 346.06 143.19 348.21 C 137.43 352.69 136.28 361.05 130.02 365.04 C 123.74 368.53 116.27 366.03 109.56 367.66 C 105.31 368.72 102.25 372.70 101.84 377.00 C 100.65 387.58 104.84 398.13 102.71 408.69 C 101.79 414.16 98.90 418.98 96.65 423.97 C 95.60 427.65 95.76 432.42 99.22 434.80 C 103.73 438.04 109.50 438.50 114.59 440.45 C 129.58 445.69 145.47 447.59 160.54 452.50 C 168.73 455.08 176.28 459.95 184.96 460.75 C 198.03 461.96 210.50 450.94 211.78 438.06 C 212.86 431.33 210.49 424.85 207.88 418.79 C 209.85 419.61 211.87 420.30 213.87 421.07 C 231.34 428.15 251.95 427.50 268.71 418.73 C 278.35 413.48 286.93 406.30 294.27 398.18 C 297.03 396.06 299.53 393.63 301.77 390.97 C 301.64 394.20 301.15 397.43 301.33 400.67 C 299.35 404.39 299.49 408.72 298.67 412.76 C 296.82 423.35 294.49 434.17 296.34 444.94 C 297.06 449.52 300.40 453.24 304.16 455.72 C 311.90 460.35 321.69 462.41 330.34 459.18 C 338.67 456.39 344.72 449.76 350.94 443.92 C 357.07 438.13 364.07 433.29 371.62 429.54 C 375.73 427.30 380.27 425.77 383.92 422.76 C 390.58 420.28 397.17 415.83 400.09 409.12 C 401.78 405.50 399.89 401.38 396.85 399.17 C 389.89 393.91 382.27 389.07 377.12 381.87 C 372.25 375.35 375.68 366.05 370.27 359.78 C 368.43 358.27 366.31 357.21 364.05 356.52 C 362.06 361.68 358.55 365.91 355.24 370.23 C 351.13 372.51 347.41 375.62 342.81 376.92 C 336.82 379.00 329.69 378.32 324.58 374.44 C 320.45 371.07 320.58 365.30 319.53 360.55 C 320.75 358.56 320.81 356.15 321.25 353.93 C 320.04 353.64 318.82 353.40 317.59 353.20 C 318.50 341.17 320.12 329.09 319.05 317.01 C 318.19 299.23 312.27 281.23 300.09 267.95 C 297.41 265.37 297.63 261.42 296.73 258.07 C 294.25 246.15 288.66 235.25 283.12 224.52 C 280.91 219.78 279.06 214.89 276.85 210.15 C 278.11 205.60 279.44 200.92 278.86 196.15 C 277.89 193.83 276.40 191.47 273.65 191.18 C 279.20 184.71 280.03 175.65 278.51 167.56 L 277.91 167.15 C 277.21 157.85 268.01 149.20 258.44 151.65 M 291.21 209.04 C 290.61 214.39 294.00 218.90 297.64 222.39 C 298.94 223.84 301.41 224.11 302.97 222.98 C 305.30 221.33 304.72 218.04 304.31 215.62 C 301.31 211.54 296.14 209.44 291.21 209.04 M 313.10 270.02 C 315.85 273.37 319.83 275.22 323.29 277.68 C 331.47 283.39 336.68 292.68 338.71 302.32 C 340.81 314.63 337.85 327.12 333.78 338.71 C 332.30 343.60 326.12 344.17 323.81 348.56 C 328.72 346.79 333.76 343.98 339.15 345.45 C 344.74 346.70 351.71 348.20 354.32 353.95 C 353.46 356.15 351.71 358.53 353.07 360.91 C 357.46 359.58 363.01 356.56 362.66 351.25 C 361.52 347.99 357.95 346.18 354.80 345.27 C 348.85 343.81 342.76 343.08 336.76 341.85 C 337.61 335.99 340.51 330.72 341.76 324.97 C 342.66 320.70 343.48 316.37 343.60 311.99 C 343.08 302.71 341.30 293.01 335.41 285.52 C 329.71 278.39 321.95 272.52 313.10 270.02 M 324.30 287.47 C 321.12 288.11 320.25 291.84 320.36 294.63 C 321.79 297.47 325.76 297.33 328.24 296.21 C 332.02 293.51 328.07 287.29 324.30 287.47 Z" />
<path fill="#000001" opacity="1.00" d=" M 254.09 170.18 C 255.53 165.91 260.52 163.34 264.78 165.04 C 271.52 167.51 273.90 176.47 270.57 182.51 C 269.22 185.69 265.81 186.91 262.88 188.17 C 260.16 186.96 257.50 185.62 254.85 184.26 C 253.31 179.77 251.89 174.71 254.09 170.18 M 261.91 167.90 C 262.67 171.13 265.36 173.20 267.88 175.09 C 267.90 173.09 267.88 171.10 267.87 169.10 C 265.98 168.26 263.98 167.75 261.91 167.90 Z" />
<path fill="#000001" opacity="1.00" d=" M 211.69 167.76 C 213.57 164.69 218.21 165.18 220.40 167.64 C 224.32 171.55 224.70 177.47 223.93 182.66 C 221.52 184.08 219.19 185.64 217.01 187.39 C 210.19 183.66 207.77 174.40 211.69 167.76 M 215.97 168.09 C 216.21 171.15 218.15 173.65 220.19 175.79 C 221.24 175.62 221.74 175.00 221.68 173.92 C 221.73 170.83 219.17 167.91 215.97 168.09 Z" />
</g>
<g id="#714f0bff">
<path fill="#714f0b" opacity="1.00" d=" M 268.31 116.36 C 271.53 115.72 274.23 118.56 276.39 120.60 C 277.72 122.19 280.31 124.39 278.78 126.58 C 275.90 128.99 272.47 130.77 268.96 132.06 C 265.52 132.57 266.01 128.27 265.80 126.05 C 266.00 122.83 264.66 118.09 268.31 116.36 Z" />
<path fill="#714f0b" opacity="1.00" d=" M 267.94 146.17 C 272.73 146.58 277.93 149.64 277.88 155.00 C 274.18 152.56 270.56 149.80 267.94 146.17 Z" />
<path fill="#714f0b" opacity="1.00" d=" M 215.97 168.09 C 219.17 167.91 221.73 170.83 221.68 173.92 C 221.74 175.00 221.24 175.62 220.19 175.79 C 218.15 173.65 216.21 171.15 215.97 168.09 Z" />
<path fill="#714f0b" opacity="1.00" d=" M 244.03 171.82 C 244.26 170.51 244.49 169.20 244.73 167.90 C 244.79 172.27 246.36 176.38 247.93 180.40 C 247.03 179.94 246.13 179.52 245.21 179.13 C 244.15 174.30 239.26 172.70 234.93 172.23 C 237.25 169.17 241.08 170.80 244.03 171.82 Z" />
<path fill="#714f0b" opacity="1.00" d=" M 261.91 167.90 C 263.98 167.75 265.98 168.26 267.87 169.10 C 267.88 171.10 267.90 173.09 267.88 175.09 C 265.36 173.20 262.67 171.13 261.91 167.90 Z" />
<path fill="#714f0b" opacity="1.00" d=" M 240.84 183.35 C 242.46 183.25 244.08 183.19 245.71 183.14 C 245.70 183.60 245.67 184.53 245.65 184.99 C 243.93 184.80 242.20 184.49 240.84 183.35 Z" />
<path fill="#714f0b" opacity="1.00" d=" M 205.06 206.77 C 204.09 203.17 205.01 198.73 208.20 196.49 C 208.36 199.86 208.33 203.31 209.30 206.57 C 211.63 209.68 215.23 211.50 218.53 213.41 C 223.43 215.70 228.96 215.66 234.22 215.17 C 243.58 214.43 252.73 211.08 260.05 205.14 C 263.68 202.68 266.54 198.43 271.27 198.14 C 267.04 201.63 262.60 204.84 258.29 208.21 C 252.82 212.56 246.02 214.76 239.24 216.02 C 234.23 216.99 228.90 216.60 224.19 218.88 C 232.49 224.37 242.68 224.87 252.31 224.53 C 244.47 229.18 234.27 231.55 225.79 227.23 C 219.27 223.26 216.28 215.64 210.25 211.09 C 208.51 209.66 206.54 208.48 205.06 206.77 Z" />
<path fill="#714f0b" opacity="1.00" d=" M 313.10 270.02 C 321.95 272.52 329.71 278.39 335.41 285.52 C 341.30 293.01 343.08 302.71 343.60 311.99 C 343.48 316.37 342.66 320.70 341.76 324.97 C 340.51 330.72 337.61 335.99 336.76 341.85 C 342.76 343.08 348.85 343.81 354.80 345.27 C 357.95 346.18 361.52 347.99 362.66 351.25 C 363.01 356.56 357.46 359.58 353.07 360.91 C 351.71 358.53 353.46 356.15 354.32 353.95 C 351.71 348.20 344.74 346.70 339.15 345.45 C 333.76 343.98 328.72 346.79 323.81 348.56 C 326.12 344.17 332.30 343.60 333.78 338.71 C 337.85 327.12 340.81 314.63 338.71 302.32 C 336.68 292.68 331.47 283.39 323.29 277.68 C 319.83 275.22 315.85 273.37 313.10 270.02 Z" />
<path fill="#714f0b" opacity="1.00" d=" M 168.92 285.86 C 171.52 281.65 175.14 278.21 178.97 275.14 C 176.12 279.62 173.02 283.96 170.81 288.81 C 167.64 295.71 163.56 302.23 161.39 309.55 C 158.61 318.70 158.82 328.59 161.15 337.82 C 162.10 341.73 164.26 345.21 166.85 348.25 C 168.18 349.84 169.59 351.37 171.08 352.82 C 166.12 352.65 162.71 348.62 160.46 344.63 C 158.53 341.12 155.77 338.20 153.24 335.14 C 154.63 332.79 156.24 330.51 157.05 327.89 C 157.94 322.83 156.71 317.63 157.79 312.60 C 158.52 309.29 159.93 306.19 161.18 303.06 C 163.56 297.24 165.59 291.23 168.92 285.86 Z" />
<path fill="#714f0b" opacity="1.00" d=" M 324.30 287.47 C 328.07 287.29 332.02 293.51 328.24 296.21 C 325.76 297.33 321.79 297.47 320.36 294.63 C 320.25 291.84 321.12 288.11 324.30 287.47 Z" />
<path fill="#714f0b" opacity="1.00" d=" M 298.67 412.76 C 299.49 408.72 299.35 404.39 301.33 400.67 C 302.46 405.81 302.50 411.09 301.67 416.29 C 300.93 425.10 300.22 435.36 306.58 442.44 C 313.45 449.15 324.31 451.39 333.35 448.21 C 341.98 445.38 348.43 438.67 355.91 433.84 C 364.33 428.19 373.99 424.65 383.92 422.76 C 380.27 425.77 375.73 427.30 371.62 429.54 C 364.07 433.29 357.07 438.13 350.94 443.92 C 344.72 449.76 338.67 456.39 330.34 459.18 C 321.69 462.41 311.90 460.35 304.16 455.72 C 300.40 453.24 297.06 449.52 296.34 444.94 C 294.49 434.17 296.82 423.35 298.67 412.76 Z" />
<path fill="#714f0b" opacity="1.00" d=" M 198.21 407.68 C 201.42 411.39 204.46 415.25 207.88 418.79 C 210.49 424.85 212.86 431.33 211.78 438.06 C 210.50 450.94 198.03 461.96 184.96 460.75 C 176.28 459.95 168.73 455.08 160.54 452.50 C 145.47 447.59 129.58 445.69 114.59 440.45 C 109.50 438.50 103.73 438.04 99.22 434.80 C 95.76 432.42 95.60 427.65 96.65 423.97 C 97.00 425.87 97.05 428.09 98.59 429.49 C 102.82 433.73 108.26 436.80 114.16 437.98 C 122.17 439.70 130.15 441.67 138.27 442.81 C 147.74 444.21 157.35 445.30 166.37 448.69 C 174.11 451.07 182.52 454.95 190.60 451.68 C 200.03 448.84 206.31 438.72 205.14 429.02 C 204.50 421.43 199.93 415.00 198.21 407.68 Z" />
</g>
<g id="#c4c4c2ff">
<path fill="#c4c4c2" opacity="1.00" d=" M 258.44 151.65 C 268.01 149.20 277.21 157.85 277.91 167.15 C 274.05 164.61 270.44 161.20 265.71 160.45 C 259.46 159.42 252.99 160.06 247.01 162.09 C 248.54 156.82 253.57 153.50 258.44 151.65 Z" />
<path fill="#c4c4c2" opacity="1.00" d=" M 212.49 154.65 C 217.93 152.89 223.64 156.09 225.91 161.11 C 222.29 160.63 218.51 159.85 214.92 160.96 C 211.18 162.09 208.18 164.70 205.13 167.01 C 205.52 162.13 207.65 156.63 212.49 154.65 Z" />
<path fill="#c4c4c2" opacity="1.00" d=" M 291.21 209.04 C 296.14 209.44 301.31 211.54 304.31 215.62 C 304.72 218.04 305.30 221.33 302.97 222.98 C 301.41 224.11 298.94 223.84 297.64 222.39 C 294.00 218.90 290.61 214.39 291.21 209.04 Z" />
<path fill="#c4c4c2" opacity="1.00" d=" M 267.46 214.61 C 270.58 213.09 273.75 211.71 276.85 210.15 C 279.06 214.89 280.91 219.78 283.12 224.52 C 279.35 223.80 275.26 222.84 271.59 224.48 C 268.05 226.07 265.26 228.86 262.19 231.15 C 256.24 235.80 249.29 238.86 242.92 242.85 C 238.72 245.52 233.65 247.83 228.62 246.21 C 220.40 243.75 215.19 236.43 210.15 229.99 C 209.63 230.19 208.58 230.57 208.06 230.77 C 210.11 224.41 209.74 217.67 210.25 211.09 C 216.28 215.64 219.27 223.26 225.79 227.23 C 234.27 231.55 244.47 229.18 252.31 224.53 C 257.80 221.90 261.97 217.22 267.46 214.61 Z" />
<path fill="#c4c4c2" opacity="1.00" d=" M 189.87 272.81 C 190.57 268.25 190.11 263.52 191.50 259.05 C 192.32 260.97 192.86 263.11 194.26 264.72 C 196.34 266.57 199.00 267.56 201.47 268.79 C 201.54 269.27 201.67 270.24 201.73 270.72 C 196.17 274.52 190.37 277.97 184.98 282.01 C 186.20 278.73 188.42 275.97 189.87 272.81 Z" />
<path fill="#c4c4c2" opacity="1.00" d=" M 279.60 264.46 C 282.65 264.15 285.78 263.43 288.84 264.08 C 292.47 265.97 294.96 269.43 297.43 272.59 C 299.63 275.82 302.19 279.05 303.05 282.95 C 302.07 285.45 299.42 282.73 297.97 282.05 C 290.31 276.23 281.23 272.73 272.11 269.96 C 270.01 269.39 268.08 268.38 266.45 266.96 C 270.55 264.98 275.19 265.13 279.60 264.46 Z" />
<path fill="#c4c4c2" opacity="1.00" d=" M 300.71 370.61 C 300.90 365.98 300.86 361.32 301.62 356.75 C 301.68 368.15 302.38 379.57 301.77 390.97 C 299.53 393.63 297.03 396.06 294.27 398.18 C 293.25 392.40 292.47 386.58 292.07 380.73 C 292.01 378.38 291.93 375.59 293.75 373.82 C 295.87 372.36 298.35 371.58 300.71 370.61 Z" />
</g>
<g id="#fdfdfbff">
<path fill="#fdfdfb" opacity="1.00" d=" M 214.92 160.96 C 218.51 159.85 222.29 160.63 225.91 161.11 L 226.72 161.23 C 229.59 166.98 232.56 174.51 227.96 180.18 C 226.61 181.01 225.27 181.84 223.93 182.66 C 224.70 177.47 224.32 171.55 220.40 167.64 C 218.21 165.18 213.57 164.69 211.69 167.76 C 207.77 174.40 210.19 183.66 217.01 187.39 C 216.83 187.69 216.47 188.29 216.29 188.59 C 214.72 190.01 213.01 191.26 211.34 192.57 C 204.48 185.99 205.30 175.71 205.13 167.01 C 208.18 164.70 211.18 162.09 214.92 160.96 Z" />
<path fill="#fdfdfb" opacity="1.00" d=" M 247.01 162.09 C 252.99 160.06 259.46 159.42 265.71 160.45 C 270.44 161.20 274.05 164.61 277.91 167.15 L 278.51 167.56 C 280.03 175.65 279.20 184.71 273.65 191.18 C 270.02 190.32 266.33 189.63 262.88 188.17 C 265.81 186.91 269.22 185.69 270.57 182.51 C 273.90 176.47 271.52 167.51 264.78 165.04 C 260.52 163.34 255.53 165.91 254.09 170.18 C 251.89 174.71 253.31 179.77 254.85 184.26 C 252.49 183.06 250.24 181.68 247.93 180.40 C 246.36 176.38 244.79 172.27 244.73 167.90 C 245.19 165.97 245.17 163.20 247.01 162.09 Z" />
<path fill="#fdfdfb" opacity="1.00" d=" M 271.59 224.48 C 275.26 222.84 279.35 223.80 283.12 224.52 C 288.66 235.25 294.25 246.15 296.73 258.07 C 297.63 261.42 297.41 265.37 300.09 267.95 C 312.27 281.23 318.19 299.23 319.05 317.01 C 320.12 329.09 318.50 341.17 317.59 353.20 C 316.04 352.99 314.48 352.84 312.93 352.75 C 308.76 352.36 303.99 352.77 301.62 356.75 C 300.86 361.32 300.90 365.98 300.71 370.61 C 298.35 371.58 295.87 372.36 293.75 373.82 C 291.93 375.59 292.01 378.38 292.07 380.73 C 292.47 386.58 293.25 392.40 294.27 398.18 C 286.93 406.30 278.35 413.48 268.71 418.73 C 251.95 427.50 231.34 428.15 213.87 421.07 C 211.87 420.30 209.85 419.61 207.88 418.79 C 204.46 415.25 201.42 411.39 198.21 407.68 C 197.18 406.12 196.13 404.58 195.09 403.04 C 199.28 403.64 204.00 404.39 207.69 401.74 C 211.84 399.24 212.34 393.51 210.69 389.36 C 208.20 382.96 202.46 378.80 197.24 374.75 C 188.21 367.82 179.62 360.33 171.08 352.82 C 169.59 351.37 168.18 349.84 166.85 348.25 C 167.17 343.25 167.07 338.23 167.48 333.23 C 169.12 316.27 174.79 299.87 182.90 284.94 C 183.50 283.91 184.08 282.82 184.98 282.01 C 190.37 277.97 196.17 274.52 201.73 270.72 C 201.67 270.24 201.54 269.27 201.47 268.79 C 199.00 267.56 196.34 266.57 194.26 264.72 C 192.86 263.11 192.32 260.97 191.50 259.05 C 194.95 248.48 202.74 240.32 208.06 230.77 C 208.58 230.57 209.63 230.19 210.15 229.99 C 215.19 236.43 220.40 243.75 228.62 246.21 C 233.65 247.83 238.72 245.52 242.92 242.85 C 249.29 238.86 256.24 235.80 262.19 231.15 C 265.26 228.86 268.05 226.07 271.59 224.48 M 279.60 264.46 C 275.19 265.13 270.55 264.98 266.45 266.96 C 268.08 268.38 270.01 269.39 272.11 269.96 C 281.23 272.73 290.31 276.23 297.97 282.05 C 299.42 282.73 302.07 285.45 303.05 282.95 C 302.19 279.05 299.63 275.82 297.43 272.59 C 294.96 269.43 292.47 265.97 288.84 264.08 C 285.78 263.43 282.65 264.15 279.60 264.46 Z" />
</g>
<g id="#f4bc0cff">
<path fill="#f4bc0c" opacity="1.00" d=" M 227.96 180.18 C 229.99 179.60 232.08 179.30 234.16 178.91 C 234.33 186.57 234.72 194.25 233.96 201.88 C 233.49 206.31 233.78 210.75 234.22 215.17 C 228.96 215.66 223.43 215.70 218.53 213.41 C 217.94 207.26 218.25 201.09 218.22 194.93 C 218.28 192.65 217.31 190.56 216.29 188.59 C 216.47 188.29 216.83 187.69 217.01 187.39 C 219.19 185.64 221.52 184.08 223.93 182.66 C 225.27 181.84 226.61 181.01 227.96 180.18 Z" />
<path fill="#f4bc0c" opacity="1.00" d=" M 146.16 349.20 C 147.76 347.03 150.68 347.02 153.08 346.55 C 158.28 348.31 162.08 352.48 165.17 356.84 C 167.45 360.16 170.35 363.18 171.70 367.05 C 173.68 375.13 178.81 381.84 183.16 388.76 C 187.60 395.87 193.01 402.62 195.21 410.86 C 197.17 418.18 199.43 426.18 196.67 433.60 C 194.21 441.30 185.33 445.21 177.72 444.43 C 168.08 442.96 159.34 438.12 149.76 436.32 C 137.51 434.00 125.26 431.48 113.37 427.65 C 110.28 426.66 106.97 424.52 106.83 420.92 C 106.60 415.27 110.33 410.43 110.74 404.87 C 111.36 396.77 106.99 389.16 107.91 381.06 C 108.46 376.64 112.49 372.95 116.98 372.96 C 123.65 372.27 131.49 374.86 137.16 370.17 C 142.85 364.54 141.25 355.30 146.16 349.20 Z" />
</g>
<g id="#f5d834ff">
<path fill="#f5d834" opacity="1.00" d=" M 234.16 178.91 C 237.83 178.49 241.57 178.42 245.21 179.13 C 246.13 179.52 247.03 179.94 247.93 180.40 C 250.24 181.68 252.49 183.06 254.85 184.26 C 257.50 185.62 260.16 186.96 262.88 188.17 C 266.33 189.63 270.02 190.32 273.65 191.18 C 276.40 191.47 277.89 193.83 278.86 196.15 C 276.49 197.34 273.89 197.87 271.27 198.14 C 266.54 198.43 263.68 202.68 260.05 205.14 C 252.73 211.08 243.58 214.43 234.22 215.17 C 233.78 210.75 233.49 206.31 233.96 201.88 C 234.72 194.25 234.33 186.57 234.16 178.91 M 240.84 183.35 C 242.20 184.49 243.93 184.80 245.65 184.99 C 245.67 184.53 245.70 183.60 245.71 183.14 C 244.08 183.19 242.46 183.25 240.84 183.35 Z" />
</g>
<g id="#d3990cff">
<path fill="#d3990c" opacity="1.00" d=" M 211.34 192.57 C 213.01 191.26 214.72 190.01 216.29 188.59 C 217.31 190.56 218.28 192.65 218.22 194.93 C 218.25 201.09 217.94 207.26 218.53 213.41 C 215.23 211.50 211.63 209.68 209.30 206.57 C 208.33 203.31 208.36 199.86 208.20 196.49 C 208.46 194.75 210.10 193.65 211.34 192.57 Z" />
<path fill="#d3990c" opacity="1.00" d=" M 278.86 196.15 C 279.44 200.92 278.11 205.60 276.85 210.15 C 273.75 211.71 270.58 213.09 267.46 214.61 C 261.97 217.22 257.80 221.90 252.31 224.53 C 242.68 224.87 232.49 224.37 224.19 218.88 C 228.90 216.60 234.23 216.99 239.24 216.02 C 246.02 214.76 252.82 212.56 258.29 208.21 C 262.60 204.84 267.04 201.63 271.27 198.14 C 273.89 197.87 276.49 197.34 278.86 196.15 Z" />
<path fill="#d3990c" opacity="1.00" d=" M 143.19 348.21 C 146.00 346.06 149.73 345.87 153.08 346.55 C 150.68 347.02 147.76 347.03 146.16 349.20 C 141.25 355.30 142.85 364.54 137.16 370.17 C 131.49 374.86 123.65 372.27 116.98 372.96 C 112.49 372.95 108.46 376.64 107.91 381.06 C 106.99 389.16 111.36 396.77 110.74 404.87 C 110.33 410.43 106.60 415.27 106.83 420.92 C 106.97 424.52 110.28 426.66 113.37 427.65 C 125.26 431.48 137.51 434.00 149.76 436.32 C 159.34 438.12 168.08 442.96 177.72 444.43 C 185.33 445.21 194.21 441.30 196.67 433.60 C 199.43 426.18 197.17 418.18 195.21 410.86 C 193.01 402.62 187.60 395.87 183.16 388.76 C 178.81 381.84 173.68 375.13 171.70 367.05 C 172.78 368.03 173.88 369.03 174.73 370.24 C 181.95 380.90 187.65 392.51 195.09 403.04 C 196.13 404.58 197.18 406.12 198.21 407.68 C 199.93 415.00 204.50 421.43 205.14 429.02 C 206.31 438.72 200.03 448.84 190.60 451.68 C 182.52 454.95 174.11 451.07 166.37 448.69 C 157.35 445.30 147.74 444.21 138.27 442.81 C 130.15 441.67 122.17 439.70 114.16 437.98 C 108.26 436.80 102.82 433.73 98.59 429.49 C 97.05 428.09 97.00 425.87 96.65 423.97 C 98.90 418.98 101.79 414.16 102.71 408.69 C 104.84 398.13 100.65 387.58 101.84 377.00 C 102.25 372.70 105.31 368.72 109.56 367.66 C 116.27 366.03 123.74 368.53 130.02 365.04 C 136.28 361.05 137.43 352.69 143.19 348.21 Z" />
<path fill="#d3990c" opacity="1.00" d=" M 301.62 356.75 C 303.99 352.77 308.76 352.36 312.93 352.75 C 311.35 354.69 309.09 356.62 309.42 359.39 C 310.18 373.75 308.96 388.16 310.27 402.49 C 310.72 409.62 308.82 416.65 309.13 423.77 C 309.33 428.07 311.46 432.80 315.76 434.36 C 322.22 436.65 329.22 434.76 335.44 432.59 C 344.85 429.40 351.94 421.89 361.17 418.32 C 369.75 414.71 379.89 414.54 387.25 408.28 C 389.74 406.26 392.43 402.72 390.77 399.43 C 387.60 394.85 381.78 393.07 378.54 388.53 C 374.08 382.27 369.75 375.58 368.07 367.97 C 367.19 365.01 369.05 362.31 370.27 359.78 C 375.68 366.05 372.25 375.35 377.12 381.87 C 382.27 389.07 389.89 393.91 396.85 399.17 C 399.89 401.38 401.78 405.50 400.09 409.12 C 397.17 415.83 390.58 420.28 383.92 422.76 C 373.99 424.65 364.33 428.19 355.91 433.84 C 348.43 438.67 341.98 445.38 333.35 448.21 C 324.31 451.39 313.45 449.15 306.58 442.44 C 300.22 435.36 300.93 425.10 301.67 416.29 C 302.50 411.09 302.46 405.81 301.33 400.67 C 301.15 397.43 301.64 394.20 301.77 390.97 C 302.38 379.57 301.68 368.15 301.62 356.75 Z" />
<path fill="#d3990c" opacity="1.00" d=" M 319.97 384.15 C 316.39 376.93 313.97 367.44 319.53 360.55 C 320.58 365.30 320.45 371.07 324.58 374.44 C 329.69 378.32 336.82 379.00 342.81 376.92 C 347.41 375.62 351.13 372.51 355.24 370.23 C 353.86 375.40 352.69 380.92 348.99 385.02 C 345.20 389.29 339.75 392.38 334.00 392.69 C 328.32 392.49 322.40 389.49 319.97 384.15 Z" />
</g>
<g id="#f2be1fff">
<path fill="#f2be1f" opacity="1.00" d=" M 312.93 352.75 C 314.48 352.84 316.04 352.99 317.59 353.20 C 318.82 353.40 320.04 353.64 321.25 353.93 C 320.81 356.15 320.75 358.56 319.53 360.55 C 313.97 367.44 316.39 376.93 319.97 384.15 C 322.40 389.49 328.32 392.49 334.00 392.69 C 339.75 392.38 345.20 389.29 348.99 385.02 C 352.69 380.92 353.86 375.40 355.24 370.23 C 358.55 365.91 362.06 361.68 364.05 356.52 C 366.31 357.21 368.43 358.27 370.27 359.78 C 369.05 362.31 367.19 365.01 368.07 367.97 C 369.75 375.58 374.08 382.27 378.54 388.53 C 381.78 393.07 387.60 394.85 390.77 399.43 C 392.43 402.72 389.74 406.26 387.25 408.28 C 379.89 414.54 369.75 414.71 361.17 418.32 C 351.94 421.89 344.85 429.40 335.44 432.59 C 329.22 434.76 322.22 436.65 315.76 434.36 C 311.46 432.80 309.33 428.07 309.13 423.77 C 308.82 416.65 310.72 409.62 310.27 402.49 C 308.96 388.16 310.18 373.75 309.42 359.39 C 309.09 356.62 311.35 354.69 312.93 352.75 Z" />
</g>
</svg>
