<?xml version="1.0" encoding="UTF-8" ?>
<!DOCTYPE svg PUBLIC "-//W3C//DTD SVG 1.1//EN" "http://www.w3.org/Graphics/SVG/1.1/DTD/svg11.dtd">
<svg width="252pt" height="283pt" viewBox="0 0 252 283" version="1.1" xmlns="http://www.w3.org/2000/svg">
<g id="#54545454">
</g>
<g id="#65656565">
</g>
<g id="#070707ff">
<path fill="#070707" opacity="1.00" d=" M 133.90 17.92 C 136.69 17.14 138.92 14.76 141.95 14.72 C 145.23 14.54 148.61 15.02 151.57 16.49 C 154.85 18.05 156.26 22.21 160.07 22.85 C 178.39 27.51 196.71 36.25 208.26 51.73 C 215.06 60.28 218.58 70.97 220.16 81.65 C 220.39 86.77 220.31 91.89 220.17 97.00 L 218.94 96.98 C 218.36 83.47 216.83 69.35 209.31 57.72 C 204.33 50.52 198.66 43.47 191.02 38.94 C 192.45 44.88 194.46 50.79 194.26 56.98 C 194.12 68.45 191.25 79.64 188.84 90.78 C 187.65 96.51 185.60 102.07 185.03 107.91 C 189.74 109.24 194.64 109.68 199.40 110.79 C 205.59 112.06 211.48 114.37 217.54 116.07 C 217.48 116.60 217.36 117.67 217.30 118.20 C 206.79 113.99 195.64 110.89 184.33 110.18 C 183.11 113.11 182.31 116.27 182.31 119.46 C 186.16 120.76 190.25 121.05 194.24 121.75 C 192.39 122.01 190.57 122.42 188.74 122.76 C 180.21 122.02 172.03 119.29 163.77 117.19 C 136.10 109.86 109.82 96.96 81.06 94.11 C 68.52 93.11 55.57 93.30 43.57 97.48 C 34.49 100.59 25.53 104.06 16.61 107.60 C 11.23 109.85 5.65 111.72 0.64 114.74 C 9.49 115.16 18.44 115.51 27.00 118.00 C 43.78 122.95 58.89 132.07 73.41 141.60 C 83.61 147.79 93.58 154.41 104.28 159.72 C 114.36 164.19 125.73 167.72 136.77 164.94 C 145.91 162.97 153.64 157.47 161.26 152.35 C 172.93 144.33 183.07 134.39 193.27 124.63 C 193.39 125.19 193.64 126.31 193.77 126.88 C 193.07 127.88 192.39 128.89 191.36 129.59 C 189.41 130.85 187.44 132.12 185.82 133.81 C 174.98 144.85 162.54 154.26 149.27 162.17 C 141.33 166.82 131.84 168.83 122.73 167.32 C 113.70 165.74 105.11 162.21 97.10 157.82 C 78.15 147.79 61.25 134.22 41.71 125.25 C 28.78 119.04 14.32 116.20 0.00 116.84 L 0.00 112.01 C 4.56 109.79 9.28 107.94 13.97 106.01 C 14.50 105.73 15.56 105.18 16.09 104.90 C 16.97 104.53 17.85 104.18 18.73 103.82 C 22.41 102.93 25.96 101.54 29.31 99.77 C 33.09 98.39 36.95 97.21 40.63 95.59 C 42.81 94.68 43.59 92.28 44.34 90.25 C 48.44 78.18 50.37 65.54 53.07 53.12 C 54.22 52.29 54.52 51.21 53.98 49.91 C 55.53 43.92 56.99 37.70 60.61 32.57 C 64.01 28.07 69.30 25.57 74.40 23.54 C 81.64 21.01 89.23 19.55 96.85 18.89 C 98.31 19.55 100.03 19.34 101.11 18.10 C 104.29 17.88 107.49 17.89 110.67 17.66 C 114.56 17.98 118.47 17.94 122.36 17.66 C 126.20 17.80 130.06 18.26 133.90 17.92 M 137.85 18.79 C 143.03 19.57 148.17 20.61 153.38 21.13 C 152.22 18.55 149.23 17.86 146.72 17.24 C 143.73 16.68 140.09 16.26 137.85 18.79 M 94.36 21.39 C 88.06 22.25 81.87 23.76 75.84 25.74 C 70.99 27.40 66.07 29.73 62.86 33.88 C 59.89 37.77 58.39 42.52 57.14 47.18 C 55.02 56.21 53.21 65.29 51.42 74.38 C 50.13 81.06 47.86 87.47 46.23 94.05 C 51.51 93.22 56.72 91.97 62.07 91.60 C 75.01 90.44 88.07 92.06 100.60 95.37 C 127.39 101.53 152.52 113.53 179.58 118.68 C 183.26 105.03 186.33 91.21 189.48 77.42 C 190.82 69.69 192.45 61.87 192.08 53.98 C 191.33 48.02 190.11 41.67 185.91 37.09 C 182.39 32.78 176.91 30.99 171.91 29.06 C 147.21 20.22 120.31 17.83 94.36 21.39 Z" />
</g>
<g id="#46474793">
</g>
<g id="#c41f27ff">
<path fill="#c41f27" opacity="1.00" d=" M 137.85 18.79 C 140.09 16.26 143.73 16.68 146.72 17.24 C 149.23 17.86 152.22 18.55 153.38 21.13 C 148.17 20.61 143.03 19.57 137.85 18.79 Z" />
</g>
<g id="#3839389e">
</g>
<g id="#ee1e25ff">
<path fill="#ee1e25" opacity="1.00" d=" M 94.36 21.39 C 120.31 17.83 147.21 20.22 171.91 29.06 C 176.91 30.99 182.39 32.78 185.91 37.09 C 190.11 41.67 191.33 48.02 192.08 53.98 C 192.45 61.87 190.82 69.69 189.48 77.42 C 186.33 91.21 183.26 105.03 179.58 118.68 C 152.52 113.53 127.39 101.53 100.60 95.37 C 88.07 92.06 75.01 90.44 62.07 91.60 C 56.72 91.97 51.51 93.22 46.23 94.05 C 47.86 87.47 50.13 81.06 51.42 74.38 C 53.21 65.29 55.02 56.21 57.14 47.18 C 58.39 42.52 59.89 37.77 62.86 33.88 C 66.07 29.73 70.99 27.40 75.84 25.74 C 81.87 23.76 88.06 22.25 94.36 21.39 M 118.24 24.22 C 112.17 30.54 106.14 36.92 100.20 43.37 C 99.95 46.22 101.87 48.82 101.88 51.69 C 100.72 53.16 99.44 54.58 97.89 55.66 C 95.28 55.39 92.78 54.43 90.16 54.15 C 86.78 57.09 83.93 60.60 80.73 63.75 C 80.07 64.65 78.66 65.56 79.19 66.86 C 80.65 72.54 82.35 78.17 84.25 83.72 C 94.00 86.45 104.14 87.98 113.73 91.14 C 114.66 93.15 115.12 95.35 116.01 97.38 C 116.80 97.28 118.39 97.07 119.18 96.97 C 118.95 95.28 118.70 93.59 118.41 91.91 C 125.36 93.52 132.27 95.29 139.22 96.89 C 140.57 97.26 142.10 97.20 142.99 95.96 C 146.82 92.00 150.75 88.09 154.28 83.87 C 149.04 64.97 143.19 46.21 137.53 27.43 C 133.18 25.76 128.51 25.14 124.03 23.90 C 122.13 23.59 119.63 22.14 118.24 24.22 Z" />
<path fill="#ee1e25" opacity="1.00" d=" M 119.89 27.89 C 121.02 26.39 122.94 27.10 124.19 27.98 C 118.02 34.85 111.75 41.72 105.09 48.11 C 104.71 46.55 103.59 44.57 105.28 43.36 C 110.20 38.25 115.00 33.01 119.89 27.89 Z" />
<path fill="#ee1e25" opacity="1.00" d=" M 123.89 33.93 C 124.92 33.05 126.08 30.98 127.67 32.09 C 133.18 50.31 138.46 68.60 144.01 86.81 C 134.13 84.37 124.14 82.33 114.36 79.56 C 114.21 78.78 113.90 77.24 113.75 76.46 C 122.30 77.66 130.53 80.54 139.03 82.04 C 134.87 67.01 130.17 52.12 125.73 37.17 C 114.16 48.79 103.10 60.94 91.77 72.80 C 90.63 74.59 88.61 73.85 87.11 73.05 C 99.24 59.89 111.75 47.09 123.89 33.93 Z" />
<path fill="#ee1e25" opacity="1.00" d=" M 191.02 38.94 C 198.66 43.47 204.33 50.52 209.31 57.72 C 216.83 69.35 218.36 83.47 218.94 96.98 C 218.67 103.36 218.25 109.73 217.54 116.07 C 211.48 114.37 205.59 112.06 199.40 110.79 C 194.64 109.68 189.74 109.24 185.03 107.91 C 185.60 102.07 187.65 96.51 188.84 90.78 C 191.25 79.64 194.12 68.45 194.26 56.98 C 194.46 50.79 192.45 44.88 191.02 38.94 Z" />
<path fill="#ee1e25" opacity="1.00" d=" M 112.97 55.97 C 116.60 52.21 119.92 48.15 123.89 44.75 C 127.26 55.33 130.51 65.99 133.35 76.74 C 124.87 75.02 116.55 72.52 108.04 70.95 C 108.50 73.58 109.57 76.04 110.10 78.65 C 105.08 77.53 99.99 76.58 95.11 74.93 C 100.86 68.42 107.11 62.37 112.97 55.97 Z" />
<path fill="#ee1e25" opacity="1.00" d=" M 91.43 58.16 C 92.64 58.27 93.83 58.57 95.00 58.91 C 91.51 62.74 88.22 66.92 84.08 70.03 C 83.67 69.06 83.35 68.07 83.10 67.06 C 85.67 63.91 88.52 60.99 91.43 58.16 Z" />
<path fill="#ee1e25" opacity="1.00" d=" M 85.98 76.96 C 91.53 77.73 96.90 79.45 102.38 80.62 C 105.50 81.47 108.82 81.79 111.75 83.24 C 111.87 83.99 112.11 85.50 112.23 86.25 C 103.91 84.65 95.69 82.51 87.47 80.48 C 86.80 79.39 86.35 78.18 85.98 76.96 Z" />
<path fill="#ee1e25" opacity="1.00" d=" M 115.87 83.97 C 125.03 85.81 134.04 88.35 143.18 90.30 C 142.34 91.15 141.55 92.06 140.68 92.88 C 133.30 91.96 126.15 89.51 118.85 88.06 C 116.72 87.97 116.11 85.70 115.87 83.97 Z" />
<path fill="#ee1e25" opacity="1.00" d=" M 184.33 110.18 C 195.64 110.89 206.79 113.99 217.30 118.20 C 217.00 121.03 216.81 123.90 216.01 126.64 C 208.83 124.71 201.73 122.21 194.24 121.75 C 190.25 121.05 186.16 120.76 182.31 119.46 C 182.31 116.27 183.11 113.11 184.33 110.18 Z" />
</g>
<g id="#ffffffff">
<path fill="#ffffff" opacity="1.00" d=" M 118.24 24.22 C 119.63 22.14 122.13 23.59 124.03 23.90 C 128.51 25.14 133.18 25.76 137.53 27.43 C 143.19 46.21 149.04 64.97 154.28 83.87 C 150.75 88.09 146.82 92.00 142.99 95.96 C 142.10 97.20 140.57 97.26 139.22 96.89 C 132.27 95.29 125.36 93.52 118.41 91.91 C 118.70 93.59 118.95 95.28 119.18 96.97 C 118.39 97.07 116.80 97.28 116.01 97.38 C 115.12 95.35 114.66 93.15 113.73 91.14 C 104.14 87.98 94.00 86.45 84.25 83.72 C 82.35 78.17 80.65 72.54 79.19 66.86 C 78.66 65.56 80.07 64.65 80.73 63.75 C 83.93 60.60 86.78 57.09 90.16 54.15 C 92.78 54.43 95.28 55.39 97.89 55.66 C 99.44 54.58 100.72 53.16 101.88 51.69 C 101.87 48.82 99.95 46.22 100.20 43.37 C 106.14 36.92 112.17 30.54 118.24 24.22 M 119.89 27.89 C 115.00 33.01 110.20 38.25 105.28 43.36 C 103.59 44.57 104.71 46.55 105.09 48.11 C 111.75 41.72 118.02 34.85 124.19 27.98 C 122.94 27.10 121.02 26.39 119.89 27.89 M 130.92 29.28 C 136.08 47.92 142.07 66.34 147.34 84.95 C 148.29 84.77 149.12 84.36 149.84 83.72 C 150.13 82.38 149.69 81.05 149.33 79.78 C 144.32 63.34 139.62 46.81 134.56 30.40 C 133.38 29.91 132.15 29.58 130.92 29.28 M 123.89 33.93 C 111.75 47.09 99.24 59.89 87.11 73.05 C 88.61 73.85 90.63 74.59 91.77 72.80 C 103.10 60.94 114.16 48.79 125.73 37.17 C 130.17 52.12 134.87 67.01 139.03 82.04 C 130.53 80.54 122.30 77.66 113.75 76.46 C 113.90 77.24 114.21 78.78 114.36 79.56 C 124.14 82.33 134.13 84.37 144.01 86.81 C 138.46 68.60 133.18 50.31 127.67 32.09 C 126.08 30.98 124.92 33.05 123.89 33.93 M 112.97 55.97 C 107.11 62.37 100.86 68.42 95.11 74.93 C 99.99 76.58 105.08 77.53 110.10 78.65 C 109.57 76.04 108.50 73.58 108.04 70.95 C 116.55 72.52 124.87 75.02 133.35 76.74 C 130.51 65.99 127.26 55.33 123.89 44.75 C 119.92 48.15 116.60 52.21 112.97 55.97 M 91.43 58.16 C 88.52 60.99 85.67 63.91 83.10 67.06 C 83.35 68.07 83.67 69.06 84.08 70.03 C 88.22 66.92 91.51 62.74 95.00 58.91 C 93.83 58.57 92.64 58.27 91.43 58.16 M 85.98 76.96 C 86.35 78.18 86.80 79.39 87.47 80.48 C 95.69 82.51 103.91 84.65 112.23 86.25 C 112.11 85.50 111.87 83.99 111.75 83.24 C 108.82 81.79 105.50 81.47 102.38 80.62 C 96.90 79.45 91.53 77.73 85.98 76.96 M 115.87 83.97 C 116.11 85.70 116.72 87.97 118.85 88.06 C 126.15 89.51 133.30 91.96 140.68 92.88 C 141.55 92.06 142.34 91.15 143.18 90.30 C 134.04 88.35 125.03 85.81 115.87 83.97 Z" />
</g>
<g id="#ee1f26ff">
<path fill="#ee1f26" opacity="1.00" d=" M 130.92 29.28 C 132.15 29.58 133.38 29.91 134.56 30.40 C 139.62 46.81 144.32 63.34 149.33 79.78 C 149.69 81.05 150.13 82.38 149.84 83.72 C 149.12 84.36 148.29 84.77 147.34 84.95 C 142.07 66.34 136.08 47.92 130.92 29.28 Z" />
</g>
<g id="#49494996">
</g>
<g id="#2f2f30ff">
<path fill="#2f2f30" opacity="1.00" d=" M 220.16 81.65 C 221.27 88.04 220.49 94.56 220.76 101.00 C 220.81 105.44 220.78 109.91 220.13 114.31 C 220.26 108.54 220.37 102.77 220.17 97.00 C 220.31 91.89 220.39 86.77 220.16 81.65 Z" />
<path fill="#2f2f30" opacity="1.00" d=" M 98.12 169.63 C 99.92 168.19 101.79 166.57 104.10 166.09 C 109.03 167.46 113.63 169.87 118.46 171.61 C 119.35 176.16 122.22 179.99 123.96 184.25 C 121.40 183.31 118.82 182.40 116.27 181.45 C 116.26 179.87 116.43 178.10 115.17 176.91 C 111.12 171.67 104.21 170.69 98.12 169.63 Z" />
</g>
<g id="#da1e25ff">
<path fill="#da1e25" opacity="1.00" d=" M 43.57 97.48 C 55.57 93.30 68.52 93.11 81.06 94.11 C 109.82 96.96 136.10 109.86 163.77 117.19 C 172.03 119.29 180.21 122.02 188.74 122.76 C 190.27 123.33 191.81 123.88 193.27 124.63 C 183.07 134.39 172.93 144.33 161.26 152.35 C 153.64 157.47 145.91 162.97 136.77 164.94 C 125.73 167.72 114.36 164.19 104.28 159.72 C 93.58 154.41 83.61 147.79 73.41 141.60 C 58.89 132.07 43.78 122.95 27.00 118.00 C 18.44 115.51 9.49 115.16 0.64 114.74 C 5.65 111.72 11.23 109.85 16.61 107.60 C 25.53 104.06 34.49 100.59 43.57 97.48 Z" />
</g>
<g id="#020204ff">
<path fill="#020204" opacity="1.00" d=" M 218.94 96.98 L 220.17 97.00 C 220.37 102.77 220.26 108.54 220.13 114.31 C 219.69 120.01 219.03 125.69 217.76 131.26 C 217.68 137.18 218.91 143.05 218.88 148.98 C 219.97 174.55 217.51 200.85 225.37 225.62 C 231.26 244.25 241.05 261.36 252.00 277.43 L 252.00 283.00 L 193.74 283.00 C 189.84 274.52 185.45 266.28 181.30 257.93 C 180.83 256.92 180.37 255.92 179.90 254.92 C 178.58 251.98 177.26 249.05 176.08 246.05 C 174.80 242.67 173.40 239.34 171.73 236.13 C 171.32 235.30 170.89 234.48 170.44 233.68 C 171.46 230.86 172.04 227.91 172.52 224.96 C 173.55 219.66 175.71 214.03 173.32 208.76 C 172.41 204.53 168.52 202.30 164.70 201.12 C 169.46 196.21 172.69 189.88 173.60 183.08 C 174.96 175.87 174.73 168.40 173.30 161.22 C 172.79 158.38 172.03 155.58 170.82 152.96 C 169.04 153.96 167.45 155.26 165.87 156.54 C 163.41 158.44 160.75 160.07 158.36 162.06 C 162.99 168.77 164.53 177.67 161.25 185.29 C 158.88 191.49 152.52 195.86 145.81 195.45 C 142.06 193.99 138.44 192.21 134.97 190.17 C 131.36 185.11 129.60 178.73 130.82 172.57 C 126.67 172.81 122.53 172.45 118.46 171.61 C 113.63 169.87 109.03 167.46 104.10 166.09 C 101.79 166.57 99.92 168.19 98.12 169.63 C 104.21 170.69 111.12 171.67 115.17 176.91 C 116.43 178.10 116.26 179.87 116.27 181.45 C 112.86 180.72 109.40 180.16 105.90 180.23 C 103.59 180.20 101.28 180.39 99.01 180.77 C 94.79 181.43 90.75 182.81 86.68 184.04 C 88.48 180.95 90.78 178.15 92.40 174.95 C 92.71 169.92 91.78 164.70 90.02 159.99 C 84.77 156.47 79.24 153.36 73.97 149.86 C 70.63 147.75 67.31 145.62 63.92 143.59 C 62.43 142.71 60.93 141.80 59.26 141.32 C 52.80 145.98 49.81 154.28 50.07 162.06 C 50.14 169.37 50.42 176.72 51.54 183.96 C 52.45 191.21 55.12 198.81 61.22 203.30 C 59.29 205.04 57.44 206.88 55.82 208.92 C 51.88 213.28 49.91 219.14 49.80 224.97 C 49.80 226.18 50.19 227.25 50.97 228.19 C 53.50 230.64 56.59 232.42 59.19 234.79 C 59.03 236.44 58.85 238.09 58.73 239.75 C 58.70 240.22 58.63 241.15 58.60 241.62 C 58.23 245.96 58.18 250.33 58.13 254.69 C 57.81 257.65 57.36 260.60 56.82 263.54 C 54.42 270.67 50.24 277.00 45.79 283.00 L 22.37 283.00 C 28.40 275.71 35.86 269.13 38.96 259.91 C 42.62 250.72 41.18 240.67 40.41 231.09 C 38.16 201.45 36.59 171.72 37.16 141.99 C 37.06 138.20 37.97 134.19 36.47 130.59 C 36.09 130.17 35.35 129.32 34.98 128.90 C 33.05 127.64 30.86 126.89 28.70 126.18 C 19.43 123.37 9.71 121.50 0.00 122.51 L 0.00 119.82 C 22.99 119.17 44.83 128.98 63.85 141.11 C 75.73 148.75 87.92 155.91 100.37 162.58 C 107.79 166.30 115.82 168.80 123.99 170.18 C 133.34 171.12 142.69 168.07 150.91 163.80 C 166.20 154.77 179.66 142.89 191.36 129.59 C 192.39 128.89 193.07 127.88 193.77 126.88 C 193.64 126.31 193.39 125.19 193.27 124.63 C 191.81 123.88 190.27 123.33 188.74 122.76 C 190.57 122.42 192.39 122.01 194.24 121.75 C 201.73 122.21 208.83 124.71 216.01 126.64 C 216.81 123.90 217.00 121.03 217.30 118.20 C 217.36 117.67 217.48 116.60 217.54 116.07 C 218.25 109.73 218.67 103.36 218.94 96.98 M 148.37 167.29 C 150.38 169.41 152.52 172.99 155.83 172.26 C 156.02 169.66 155.96 167.03 155.45 164.46 C 152.79 164.08 150.56 166.09 148.37 167.29 M 196.31 226.61 C 193.73 227.19 191.07 229.10 191.28 232.05 C 190.19 237.88 194.43 242.44 196.81 247.29 C 199.03 251.70 202.15 256.05 206.84 258.03 C 211.73 260.08 218.70 257.47 219.56 251.86 C 219.95 248.03 220.26 243.89 218.63 240.29 C 216.44 235.49 211.06 233.85 207.01 231.06 C 203.71 229.14 200.37 226.20 196.31 226.61 Z" />
<path fill="#020204" opacity="1.00" d=" M 59.50 164.58 C 60.54 161.52 62.87 158.65 66.15 157.95 C 70.69 156.92 75.09 159.77 77.71 163.29 C 82.55 169.84 83.51 178.51 82.08 186.36 C 80.95 187.13 79.83 187.91 78.71 188.70 C 75.73 190.59 72.95 192.77 70.17 194.95 C 63.74 191.72 58.94 185.26 58.15 178.05 C 57.67 173.54 58.05 168.89 59.50 164.58 M 68.58 162.55 C 68.03 164.07 67.67 165.91 68.78 167.29 C 70.63 170.07 72.60 172.79 74.68 175.42 C 75.62 175.69 76.57 175.83 77.54 175.85 C 77.76 172.58 78.19 169.08 76.98 165.96 C 75.12 163.45 71.73 161.67 68.58 162.55 Z" />
</g>
<g id="#dfdfdeff">
<path fill="#dfdfde" opacity="1.00" d=" M 58.13 254.69 C 60.68 258.42 62.35 262.63 64.33 266.67 C 67.66 272.83 72.37 278.14 77.37 283.00 L 71.29 283.00 C 65.37 277.36 61.55 270.09 56.82 263.54 C 57.36 260.60 57.81 257.65 58.13 254.69 Z" />
</g>
<g id="#626262b7">
<path fill="#626262" opacity="0.72" d=" M 13.97 106.01 C 14.50 105.73 15.56 105.18 16.09 104.90 C 15.56 105.18 14.50 105.73 13.97 106.01 Z" />
</g>
<g id="#e91f26ff">
<path fill="#e91f26" opacity="1.00" d=" M 0.00 116.84 C 14.32 116.20 28.78 119.04 41.71 125.25 C 61.25 134.22 78.15 147.79 97.10 157.82 C 105.11 162.21 113.70 165.74 122.73 167.32 C 131.84 168.83 141.33 166.82 149.27 162.17 C 162.54 154.26 174.98 144.85 185.82 133.81 C 187.44 132.12 189.41 130.85 191.36 129.59 C 179.66 142.89 166.20 154.77 150.91 163.80 C 142.69 168.07 133.34 171.12 123.99 170.18 C 115.82 168.80 107.79 166.30 100.37 162.58 C 87.92 155.91 75.73 148.75 63.85 141.11 C 44.83 128.98 22.99 119.17 0.00 119.82 L 0.00 116.84 Z" />
</g>
<g id="#7d1317ff">
<path fill="#7d1317" opacity="1.00" d=" M 0.00 122.51 C 9.71 121.50 19.43 123.37 28.70 126.18 C 30.86 126.89 33.05 127.64 34.98 128.90 C 24.82 136.72 12.89 142.93 0.00 144.34 L 0.00 122.51 Z" />
</g>
<g id="#070805ff">
<path fill="#070805" opacity="1.00" d=" M 0.00 144.34 C 12.89 142.93 24.82 136.72 34.98 128.90 C 35.35 129.32 36.09 130.17 36.47 130.59 C 26.32 139.67 13.46 145.45 0.00 147.33 L 0.00 144.34 Z" />
</g>
<g id="#838382ff">
<path fill="#838382" opacity="1.00" d=" M 59.26 141.32 C 60.93 141.80 62.43 142.71 63.92 143.59 C 62.47 144.55 60.92 145.45 59.80 146.82 C 58.64 149.03 58.43 151.57 57.88 153.97 C 55.23 156.62 52.51 159.21 50.07 162.06 C 49.81 154.28 52.80 145.98 59.26 141.32 Z" />
</g>
<g id="#a4a4a4ff">
<path fill="#a4a4a4" opacity="1.00" d=" M 59.80 146.82 C 60.92 145.45 62.47 144.55 63.92 143.59 C 67.31 145.62 70.63 147.75 73.97 149.86 C 68.25 149.13 62.85 151.43 57.88 153.97 C 58.43 151.57 58.64 149.03 59.80 146.82 Z" />
</g>
<g id="#4949494e">
</g>
<g id="#fefefcff">
<path fill="#fefefc" opacity="1.00" d=" M 57.88 153.97 C 62.85 151.43 68.25 149.13 73.97 149.86 C 79.24 153.36 84.77 156.47 90.02 159.99 C 91.78 164.70 92.71 169.92 92.40 174.95 C 90.78 178.15 88.48 180.95 86.68 184.04 C 85.16 184.84 83.62 185.60 82.08 186.36 C 83.51 178.51 82.55 169.84 77.71 163.29 C 75.09 159.77 70.69 156.92 66.15 157.95 C 62.87 158.65 60.54 161.52 59.50 164.58 C 58.05 168.89 57.67 173.54 58.15 178.05 C 58.94 185.26 63.74 191.72 70.17 194.95 C 69.89 195.37 69.32 196.22 69.04 196.64 C 67.66 197.88 66.29 199.14 64.85 200.30 C 58.44 196.68 55.60 189.70 51.54 183.96 C 50.42 176.72 50.14 169.37 50.07 162.06 C 52.51 159.21 55.23 156.62 57.88 153.97 Z" />
<path fill="#fefefc" opacity="1.00" d=" M 158.36 162.06 C 160.75 160.07 163.41 158.44 165.87 156.54 C 168.38 158.05 170.76 159.75 173.30 161.22 C 174.73 168.40 174.96 175.87 173.60 183.08 C 171.09 185.80 168.94 188.82 166.77 191.81 C 164.41 195.04 161.01 197.24 157.71 199.41 C 157.30 199.32 156.49 199.13 156.08 199.03 C 152.60 198.01 149.17 196.82 145.81 195.45 C 152.52 195.86 158.88 191.49 161.25 185.29 C 164.53 177.67 162.99 168.77 158.36 162.06 Z" />
<path fill="#fefefc" opacity="1.00" d=" M 123.96 184.25 C 122.22 179.99 119.35 176.16 118.46 171.61 C 122.53 172.45 126.67 172.81 130.82 172.57 C 129.60 178.73 131.36 185.11 134.97 190.17 C 132.59 189.01 130.21 187.87 127.87 186.65 C 126.56 185.85 125.26 185.05 123.96 184.25 Z" />
</g>
<g id="#40404045">
</g>
<g id="#a2a2a2ff">
<path fill="#a2a2a2" opacity="1.00" d=" M 165.87 156.54 C 167.45 155.26 169.04 153.96 170.82 152.96 C 172.03 155.58 172.79 158.38 173.30 161.22 C 170.76 159.75 168.38 158.05 165.87 156.54 Z" />
</g>
<g id="#4a4a49ff">
<path fill="#4a4a49" opacity="1.00" d=" M 68.58 162.55 C 71.73 161.67 75.12 163.45 76.98 165.96 C 78.19 169.08 77.76 172.58 77.54 175.85 C 76.57 175.83 75.62 175.69 74.68 175.42 C 72.60 172.79 70.63 170.07 68.78 167.29 C 67.67 165.91 68.03 164.07 68.58 162.55 Z" />
</g>
<g id="#6a6a6bff">
<path fill="#6a6a6b" opacity="1.00" d=" M 148.37 167.29 C 150.56 166.09 152.79 164.08 155.45 164.46 C 155.96 167.03 156.02 169.66 155.83 172.26 C 152.52 172.99 150.38 169.41 148.37 167.29 Z" />
</g>
<g id="#ecc10cff">
<path fill="#ecc10c" opacity="1.00" d=" M 86.68 184.04 C 90.75 182.81 94.79 181.43 99.01 180.77 C 98.89 190.85 99.03 200.93 99.04 211.00 C 99.08 216.03 97.96 220.98 97.96 226.00 C 97.81 231.26 98.80 236.48 100.07 241.55 C 93.44 242.47 86.59 242.48 80.04 240.98 C 79.68 230.57 80.61 220.11 79.39 209.74 C 78.69 202.74 79.30 195.70 78.71 188.70 C 79.83 187.91 80.95 187.13 82.08 186.36 C 83.62 185.60 85.16 184.84 86.68 184.04 M 82.50 192.35 C 83.11 192.54 84.34 192.92 84.96 193.10 C 85.10 191.38 85.11 189.64 84.95 187.92 C 82.64 187.82 82.00 190.55 82.50 192.35 Z" />
</g>
<g id="#eecd1cff">
<path fill="#eecd1c" opacity="1.00" d=" M 99.01 180.77 C 101.28 180.39 103.59 180.20 105.90 180.23 C 106.49 190.20 108.55 200.55 105.23 210.27 C 103.15 216.54 99.69 222.98 101.21 229.77 C 103.26 233.29 106.91 235.86 107.56 240.16 C 105.08 240.71 102.59 241.22 100.07 241.55 C 98.80 236.48 97.81 231.26 97.96 226.00 C 97.96 220.98 99.08 216.03 99.04 211.00 C 99.03 200.93 98.89 190.85 99.01 180.77 Z" />
</g>
<g id="#f5d830ff">
<path fill="#f5d830" opacity="1.00" d=" M 105.90 180.23 C 109.40 180.16 112.86 180.72 116.27 181.45 C 118.82 182.40 121.40 183.31 123.96 184.25 C 125.26 185.05 126.56 185.85 127.87 186.65 C 127.17 188.04 125.81 189.33 126.01 191.01 C 126.31 195.38 127.87 199.57 128.08 203.95 C 128.55 209.31 127.49 214.61 126.82 219.89 C 126.21 224.64 126.97 229.40 127.22 234.15 C 121.10 237.35 114.32 238.97 107.56 240.16 C 106.91 235.86 103.26 233.29 101.21 229.77 C 99.69 222.98 103.15 216.54 105.23 210.27 C 108.55 200.55 106.49 190.20 105.90 180.23 M 110.47 187.43 C 110.39 187.97 110.24 189.06 110.17 189.60 C 113.10 190.13 116.11 190.17 119.07 189.90 C 118.94 189.28 118.67 188.03 118.54 187.41 C 116.05 186.27 112.86 185.81 110.47 187.43 M 117.34 201.37 C 112.61 201.83 111.21 206.78 109.30 210.31 C 106.76 215.56 103.02 220.77 103.14 226.82 C 103.74 231.56 109.97 231.66 113.45 230.45 C 117.02 226.18 119.77 221.26 122.38 216.36 C 124.30 212.36 126.76 207.97 125.63 203.39 C 124.27 200.19 120.09 200.84 117.34 201.37 Z" />
</g>
<g id="#e3e3e2ff">
<path fill="#e3e3e2" opacity="1.00" d=" M 166.77 191.81 C 168.94 188.82 171.09 185.80 173.60 183.08 C 172.69 189.88 169.46 196.21 164.70 201.12 C 162.36 200.61 160.04 200.00 157.71 199.41 C 161.01 197.24 164.41 195.04 166.77 191.81 Z" />
</g>
<g id="#e0dfdfff">
<path fill="#e0dfdf" opacity="1.00" d=" M 51.54 183.96 C 55.60 189.70 58.44 196.68 64.85 200.30 C 63.90 201.10 62.95 201.90 62.00 202.71 L 61.22 203.30 C 55.12 198.81 52.45 191.21 51.54 183.96 Z" />
</g>
<g id="#9f8218ff">
<path fill="#9f8218" opacity="1.00" d=" M 110.47 187.43 C 112.86 185.81 116.05 186.27 118.54 187.41 C 118.67 188.03 118.94 189.28 119.07 189.90 C 116.11 190.17 113.10 190.13 110.17 189.60 C 110.24 189.06 110.39 187.97 110.47 187.43 Z" />
</g>
<g id="#f6d81aff">
<path fill="#f6d81a" opacity="1.00" d=" M 126.01 191.01 C 125.81 189.33 127.17 188.04 127.87 186.65 C 130.21 187.87 132.59 189.01 134.97 190.17 C 138.44 192.21 142.06 193.99 145.81 195.45 C 149.17 196.82 152.60 198.01 156.08 199.03 C 157.09 203.59 157.25 208.33 156.29 212.91 C 147.81 221.45 137.99 228.76 127.22 234.15 C 126.97 229.40 126.21 224.64 126.82 219.89 C 127.49 214.61 128.55 209.31 128.08 203.95 C 127.87 199.57 126.31 195.38 126.01 191.01 Z" />
</g>
<g id="#c19609ff">
<path fill="#c19609" opacity="1.00" d=" M 82.50 192.35 C 82.00 190.55 82.64 187.82 84.95 187.92 C 85.11 189.64 85.10 191.38 84.96 193.10 C 84.34 192.92 83.11 192.54 82.50 192.35 Z" />
</g>
<g id="#e4ad0aff">
<path fill="#e4ad0a" opacity="1.00" d=" M 70.17 194.95 C 72.95 192.77 75.73 190.59 78.71 188.70 C 79.30 195.70 78.69 202.74 79.39 209.74 C 80.61 220.11 79.68 230.57 80.04 240.98 C 76.51 240.21 73.07 238.90 70.04 236.92 C 70.05 226.61 69.98 216.30 70.15 205.99 C 70.16 202.84 69.65 199.72 69.04 196.64 C 69.32 196.22 69.89 195.37 70.17 194.95 Z" />
</g>
<g id="#d99f08ff">
<path fill="#d99f08" opacity="1.00" d=" M 64.85 200.30 C 66.29 199.14 67.66 197.88 69.04 196.64 C 69.65 199.72 70.16 202.84 70.15 205.99 C 69.98 216.30 70.05 226.61 70.04 236.92 C 67.61 235.38 65.31 233.63 63.04 231.86 C 62.41 222.15 64.18 212.27 62.00 202.71 C 62.95 201.90 63.90 201.10 64.85 200.30 Z" />
</g>
<g id="#f4cd29ff">
<path fill="#f4cd29" opacity="1.00" d=" M 156.08 199.03 C 156.49 199.13 157.30 199.32 157.71 199.41 C 160.04 200.00 162.36 200.61 164.70 201.12 C 168.52 202.30 172.41 204.53 173.32 208.76 C 172.74 210.06 172.09 211.33 171.27 212.50 C 168.02 213.13 164.73 212.31 161.46 212.40 C 159.73 212.40 158.00 212.63 156.29 212.91 C 157.25 208.33 157.09 203.59 156.08 199.03 Z" />
</g>
<g id="#f6da47ff">
<path fill="#f6da47" opacity="1.00" d=" M 117.34 201.37 C 120.09 200.84 124.27 200.19 125.63 203.39 C 126.76 207.97 124.30 212.36 122.38 216.36 C 119.77 221.26 117.02 226.18 113.45 230.45 C 109.97 231.66 103.74 231.56 103.14 226.82 C 103.02 220.77 106.76 215.56 109.30 210.31 C 111.21 206.78 112.61 201.83 117.34 201.37 Z" />
</g>
<g id="#c48c09ff">
<path fill="#c48c09" opacity="1.00" d=" M 61.22 203.30 L 62.00 202.71 C 64.18 212.27 62.41 222.15 63.04 231.86 C 60.74 230.43 58.34 229.19 55.94 227.96 C 56.21 221.61 56.11 215.26 55.82 208.92 C 57.44 206.88 59.29 205.04 61.22 203.30 Z" />
</g>
<g id="#b17c0aff">
<path fill="#b17c0a" opacity="1.00" d=" M 49.80 224.97 C 49.91 219.14 51.88 213.28 55.82 208.92 C 56.11 215.26 56.21 221.61 55.94 227.96 C 54.28 228.02 52.62 228.12 50.97 228.19 C 50.19 227.25 49.80 226.18 49.80 224.97 Z" />
</g>
<g id="#d79b08ff">
<path fill="#d79b08" opacity="1.00" d=" M 173.32 208.76 C 175.71 214.03 173.55 219.66 172.52 224.96 C 168.26 228.40 164.41 232.37 161.90 237.28 C 154.65 240.04 148.14 244.29 142.01 248.98 C 132.20 251.57 122.27 254.86 111.97 254.15 C 104.79 253.88 98.20 250.42 91.01 250.14 C 87.60 250.07 84.17 249.13 81.93 246.42 C 89.01 245.46 96.19 246.10 103.28 245.25 C 114.56 243.71 125.84 240.65 135.58 234.59 C 142.94 230.12 148.82 223.61 156.35 219.38 C 158.88 218.14 160.69 215.98 161.19 213.18 L 161.46 212.40 C 164.73 212.31 168.02 213.13 171.27 212.50 C 172.09 211.33 172.74 210.06 173.32 208.76 Z" />
</g>
<g id="#845a06ff">
<path fill="#845a06" opacity="1.00" d=" M 156.29 212.91 C 158.00 212.63 159.73 212.40 161.46 212.40 L 161.19 213.18 C 158.68 215.40 155.90 217.28 153.08 219.09 C 147.46 222.66 142.99 227.73 137.36 231.29 C 125.18 239.33 110.60 242.50 96.32 244.26 C 89.94 243.59 83.52 244.04 77.13 243.47 C 74.07 243.17 71.00 243.41 67.96 243.77 C 65.21 240.61 62.47 237.42 59.19 234.79 C 56.59 232.42 53.50 230.64 50.97 228.19 C 52.62 228.12 54.28 228.02 55.94 227.96 C 58.34 229.19 60.74 230.43 63.04 231.86 C 65.31 233.63 67.61 235.38 70.04 236.92 C 73.07 238.90 76.51 240.21 80.04 240.98 C 86.59 242.48 93.44 242.47 100.07 241.55 C 102.59 241.22 105.08 240.71 107.56 240.16 C 114.32 238.97 121.10 237.35 127.22 234.15 C 137.99 228.76 147.81 221.45 156.29 212.91 Z" />
</g>
<g id="#b88007ff">
<path fill="#b88007" opacity="1.00" d=" M 153.08 219.09 C 155.90 217.28 158.68 215.40 161.19 213.18 C 160.69 215.98 158.88 218.14 156.35 219.38 C 148.82 223.61 142.94 230.12 135.58 234.59 C 125.84 240.65 114.56 243.71 103.28 245.25 C 96.19 246.10 89.01 245.46 81.93 246.42 C 84.17 249.13 87.60 250.07 91.01 250.14 C 98.20 250.42 104.79 253.88 111.97 254.15 C 122.27 254.86 132.20 251.57 142.01 248.98 C 136.61 253.47 130.84 257.64 124.27 260.24 C 115.66 259.69 106.85 260.89 98.43 258.55 C 92.10 256.88 86.12 253.97 80.76 250.25 C 79.57 249.22 77.43 248.22 78.22 246.32 C 83.96 244.08 90.41 246.12 96.32 244.26 C 110.60 242.50 125.18 239.33 137.36 231.29 C 142.99 227.73 147.46 222.66 153.08 219.09 Z" />
</g>
<g id="#bf8607ff">
<path fill="#bf8607" opacity="1.00" d=" M 161.90 237.28 C 164.41 232.37 168.26 228.40 172.52 224.96 C 172.04 227.91 171.46 230.86 170.44 233.68 C 167.68 235.08 164.84 236.33 161.90 237.28 Z" />
</g>
<g id="#313132ff">
<path fill="#313132" opacity="1.00" d=" M 196.31 226.61 C 200.37 226.20 203.71 229.14 207.01 231.06 C 211.06 233.85 216.44 235.49 218.63 240.29 C 220.26 243.89 219.95 248.03 219.56 251.86 C 218.70 257.47 211.73 260.08 206.84 258.03 C 202.15 256.05 199.03 251.70 196.81 247.29 C 194.43 242.44 190.19 237.88 191.28 232.05 C 191.07 229.10 193.73 227.19 196.31 226.61 M 195.63 233.01 C 195.00 237.54 197.54 241.59 199.75 245.31 C 201.75 248.51 203.90 251.87 207.20 253.88 C 209.56 254.90 212.32 254.49 214.69 253.68 C 215.84 249.42 216.08 244.64 214.49 240.47 C 211.85 237.19 207.29 236.49 204.11 233.87 C 201.80 232.15 197.69 229.93 195.63 233.01 Z" />
</g>
<g id="#7c7c7dff">
<path fill="#7c7c7d" opacity="1.00" d=" M 195.63 233.01 C 197.69 229.93 201.80 232.15 204.11 233.87 C 207.29 236.49 211.85 237.19 214.49 240.47 C 216.08 244.64 215.84 249.42 214.69 253.68 C 212.32 254.49 209.56 254.90 207.20 253.88 C 203.90 251.87 201.75 248.51 199.75 245.31 C 197.54 241.59 195.00 237.54 195.63 233.01 Z" />
</g>
<g id="#a0a09eff">
<path fill="#a0a09e" opacity="1.00" d=" M 161.90 237.28 C 164.84 236.33 167.68 235.08 170.44 233.68 C 170.89 234.48 171.32 235.30 171.73 236.13 C 168.42 239.64 164.28 242.27 159.64 243.66 C 148.80 247.15 140.92 255.91 130.81 260.80 C 118.92 267.27 104.89 269.93 91.54 267.43 C 84.25 265.89 78.00 261.35 73.24 255.76 C 68.30 250.51 64.48 244.22 58.73 239.75 C 58.85 238.09 59.03 236.44 59.19 234.79 C 62.47 237.42 65.21 240.61 67.96 243.77 C 73.29 251.30 78.84 259.57 87.73 263.18 C 99.53 268.12 113.04 265.45 124.27 260.24 C 130.84 257.64 136.61 253.47 142.01 248.98 C 148.14 244.29 154.65 240.04 161.90 237.28 Z" />
</g>
<g id="#bcbcbaff">
<path fill="#bcbcba" opacity="1.00" d=" M 159.64 243.66 C 164.28 242.27 168.42 239.64 171.73 236.13 C 173.40 239.34 174.80 242.67 176.08 246.05 C 174.97 247.27 173.94 248.60 172.54 249.50 C 168.23 250.52 163.64 249.89 159.43 251.41 C 153.86 253.30 149.62 257.53 145.19 261.19 C 140.81 264.94 136.02 268.19 131.01 271.03 C 124.47 275.03 117.08 277.71 111.38 283.00 L 84.47 283.00 C 79.03 278.65 73.73 273.93 70.05 267.95 C 64.36 260.03 63.66 249.87 58.60 241.62 C 58.63 241.15 58.70 240.22 58.73 239.75 C 64.48 244.22 68.30 250.51 73.24 255.76 C 78.00 261.35 84.25 265.89 91.54 267.43 C 104.89 269.93 118.92 267.27 130.81 260.80 C 140.92 255.91 148.80 247.15 159.64 243.66 Z" />
</g>
<g id="#cacac9ff">
<path fill="#cacac9" opacity="1.00" d=" M 58.13 254.69 C 58.18 250.33 58.23 245.96 58.60 241.62 C 63.66 249.87 64.36 260.03 70.05 267.95 C 73.73 273.93 79.03 278.65 84.47 283.00 L 77.37 283.00 C 72.37 278.14 67.66 272.83 64.33 266.67 C 62.35 262.63 60.68 258.42 58.13 254.69 Z" />
</g>
<g id="#986506ff">
<path fill="#986506" opacity="1.00" d=" M 67.96 243.77 C 71.00 243.41 74.07 243.17 77.13 243.47 C 83.52 244.04 89.94 243.59 96.32 244.26 C 90.41 246.12 83.96 244.08 78.22 246.32 C 77.43 248.22 79.57 249.22 80.76 250.25 C 86.12 253.97 92.10 256.88 98.43 258.55 C 106.85 260.89 115.66 259.69 124.27 260.24 C 113.04 265.45 99.53 268.12 87.73 263.18 C 78.84 259.57 73.29 251.30 67.96 243.77 Z" />
</g>
<g id="#d6d6d4ff">
<path fill="#d6d6d4" opacity="1.00" d=" M 172.54 249.50 C 173.94 248.60 174.97 247.27 176.08 246.05 C 177.26 249.05 178.58 251.98 179.90 254.92 C 174.11 255.97 168.17 255.34 162.41 256.41 C 154.82 258.61 149.86 265.21 143.54 269.52 C 136.59 274.67 128.63 278.18 121.47 283.00 L 111.38 283.00 C 117.08 277.71 124.47 275.03 131.01 271.03 C 136.02 268.19 140.81 264.94 145.19 261.19 C 149.62 257.53 153.86 253.30 159.43 251.41 C 163.64 249.89 168.23 250.52 172.54 249.50 Z" />
</g>
<g id="#ededebff">
<path fill="#ededeb" opacity="1.00" d=" M 162.41 256.41 C 168.17 255.34 174.11 255.97 179.90 254.92 C 180.37 255.92 180.83 256.92 181.30 257.93 C 176.51 260.32 171.14 260.12 165.95 260.09 C 159.37 259.95 154.76 265.27 149.99 268.99 C 143.68 274.47 136.08 278.09 129.37 283.00 L 121.47 283.00 C 128.63 278.18 136.59 274.67 143.54 269.52 C 149.86 265.21 154.82 258.61 162.41 256.41 Z" />
</g>
<g id="#fdfdfbff">
<path fill="#fdfdfb" opacity="1.00" d=" M 165.95 260.09 C 171.14 260.12 176.51 260.32 181.30 257.93 C 185.45 266.28 189.84 274.52 193.74 283.00 L 129.37 283.00 C 136.08 278.09 143.68 274.47 149.99 268.99 C 154.76 265.27 159.37 259.95 165.95 260.09 Z" />
</g>
<g id="#fbfbf9ff">
<path fill="#fbfbf9" opacity="1.00" d=" M 56.82 263.54 C 61.55 270.09 65.37 277.36 71.29 283.00 L 45.79 283.00 C 50.24 277.00 54.42 270.67 56.82 263.54 Z" />
</g>
</svg>
