<?xml version="1.0" encoding="utf-8"?>
<!-- Generator: Adobe Illustrator 15.1.0, SVG Export Plug-In . SVG Version: 6.00 Build 0)  -->
<!DOCTYPE svg PUBLIC "-//W3C//DTD SVG 1.1//EN" "http://www.w3.org/Graphics/SVG/1.1/DTD/svg11.dtd">
<svg version="1.1" id="Layer_1" xmlns="http://www.w3.org/2000/svg" xmlns:xlink="http://www.w3.org/1999/xlink" x="0px" y="0px"
	 width="280px" height="280px" viewBox="0 0 280 280" enable-background="new 0 0 280 280" xml:space="preserve">
<g>
	<path fill="#134881" d="M280,27.343C280,12.252,267.748,0,252.656,0H27.346C12.254,0,0,12.252,0,27.343v225.311
		C0,267.746,12.254,280,27.346,280h225.311C267.748,280,280,267.746,280,252.654V27.343z"/>
	
		<radialGradient id="SVGID_1_" cx="-103.7661" cy="259.2822" r="2.3202" gradientTransform="matrix(122.3514 0 0 -122.3514 12899.2051 31698.9824)" gradientUnits="userSpaceOnUse">
		<stop  offset="0" style="stop-color:#6BE1FB"/>
		<stop  offset="1" style="stop-color:#38BDFA"/>
	</radialGradient>
	<path fill="url(#SVGID_1_)" d="M259.495,248.639c-0.048,5.996-4.931,10.853-10.938,10.853H138.174l-47.182-81.723h168.503V248.639
		L259.495,248.639z M20.511,248.553v-47.983L124.469,20.507h40.627L77.271,172.63l50.147,86.861h-95.97
		C25.411,259.491,20.511,254.59,20.511,248.553z M153.721,168.449h-41.075c-4.587,0-8.824-2.406-11.114-6.379
		c-2.296-3.97-2.296-8.864,0-12.834l20.547-35.594L153.721,168.449z M248.558,20.507c6.007,0,10.89,4.856,10.938,10.854v137.088
		h-95.014l-37.025-64.12l48.394-83.822H248.558z"/>
</g>
</svg>
